<?xml version="1.0" standalone="no"?><svg xmlns="http://www.w3.org/2000/svg" viewBox="0 0 1440 320"><path fill="#f3f4f5" fill-opacity="1" d="M0,160L30,165.3C60,171,120,181,180,186.7C240,192,300,192,360,170.7C420,149,480,107,540,112C600,117,660,171,720,197.3C780,224,840,224,900,234.7C960,245,1020,267,1080,245.3C1140,224,1200,160,1260,144C1320,128,1380,160,1410,176L1440,192L1440,320L1410,320C1380,320,1320,320,1260,320C1200,320,1140,320,1080,320C1020,320,960,320,900,320C840,320,780,320,720,320C660,320,600,320,540,320C480,320,420,320,360,320C300,320,240,320,180,320C120,320,60,320,30,320L0,320Z"></path></svg>