<?xml version="1.0" standalone="no"?><svg xmlns="http://www.w3.org/2000/svg" viewBox="0 0 1440 320"><path fill="#f3f4f5" fill-opacity="1" d="M0,160L30,165.3C60,171,120,181,180,186.7C240,192,300,192,360,170.7C420,149,480,107,540,112C600,117,660,171,720,197.3C780,224,840,224,900,234.7C960,245,1020,267,1080,245.3C1140,224,1200,160,1260,144C1320,128,1380,160,1410,176L1440,192L1440,0L1410,0C1380,0,1320,0,1260,0C1200,0,1140,0,1080,0C1020,0,960,0,900,0C840,0,780,0,720,0C660,0,600,0,540,0C480,0,420,0,360,0C300,0,240,0,180,0C120,0,60,0,30,0L0,0Z"></path></svg>